<?xml version="1.0" standalone="no"?>
<!DOCTYPE svg PUBLIC "-//W3C//DTD SVG 1.1//EN" "http://www.w3.org/Graphics/SVG/1.1/DTD/svg11.dtd" >
<svg xmlns="http://www.w3.org/2000/svg" xmlns:xlink="http://www.w3.org/1999/xlink" version="1.1">
<metadata>
Created by FontForge 20161013 at Mon Jul 22 18:39:24 2013
 By ,,,
(c) David Einwaller / deinwaller.com / 2013
</metadata>
<defs>
<font id="NeueDroschke" horiz-adv-x="471" >
  <font-face 
    font-family="Neue Droschke"
    font-weight="600"
    font-stretch="normal"
    units-per-em="1000"
    panose-1="2 0 0 0 0 0 0 0 0 0"
    ascent="750"
    descent="-250"
    x-height="458"
    cap-height="700"
    bbox="-52 -248 1023 885"
    underline-thickness="50"
    underline-position="-150"
    unicode-range="U+000D-FB02"
  />
<missing-glyph horiz-adv-x="260" 
 />
    <glyph glyph-name=".notdef" horiz-adv-x="260" 
 />
    <glyph glyph-name=".null" horiz-adv-x="0" 
 />
    <glyph glyph-name="nonmarkingreturn" unicode="&#xd;" horiz-adv-x="260" 
 />
    <glyph glyph-name="NULL" horiz-adv-x="0" 
 />
    <glyph glyph-name="NULL" horiz-adv-x="0" 
 />
    <glyph glyph-name="space" unicode=" " horiz-adv-x="218" 
 />
    <glyph glyph-name="exclam" unicode="!" horiz-adv-x="177" 
d="M156 62q0 -29 -20 -48.5t-48 -19.5q-29 0 -48.5 19.5t-19.5 48.5q0 28 19.5 48t48.5 20q28 0 48 -20t20 -48zM140 211h-105v489h105v-489z" />
    <glyph glyph-name="quotedbl" unicode="&#x22;" horiz-adv-x="355" 
d="M99 458h-83l70 242h97l-84 -242v0zM253 458h-83l70 242h97l-84 -242v0z" />
    <glyph glyph-name="numbersign" unicode="#" horiz-adv-x="521" 
d="M464 568l-27 -133h57v-96h-77l-13 -68h90v-97h-110l-30 -146l-98 20l26 126h-96l-31 -152l-98 20l27 132h-58v97h77l14 68h-91v96h111l29 146l98 -20l-25 -126h96l31 153zM302 271l13 68h-96l-14 -68h97z" />
    <glyph glyph-name="dollar" unicode="$" horiz-adv-x="477" 
d="M454 204q0 -36 -12 -68t-33.5 -57.5t-51 -43.5t-63.5 -26v-89h-105v88q-36 7 -66 25t-52 43.5t-34.5 58t-12.5 69.5h105q0 -21 8.5 -40t23.5 -33.5t35 -22.5t43 -8q22 0 42 8t35 22.5t24 33.5t9 40q0 33 -20.5 59.5t-52.5 37.5l-99 33q-29 10 -53.5 28t-41.5 41.5
t-26.5 51.5t-9.5 58q0 33 11 62t30 52.5t45 40t57 24.5v73h105v-73q31 -8 57 -24.5t45 -40t30 -52.5t11 -62h-105q0 18 -7 34t-19.5 29t-29 20.5t-34.5 7.5q-19 0 -35.5 -7.5t-29 -20.5t-19.5 -29t-7 -34q0 -26 16.5 -50t43.5 -33l98 -36q66 -22 105.5 -72.5t39.5 -117.5z
" />
    <glyph glyph-name="percent" unicode="%" horiz-adv-x="708" 
d="M181 385q-33 0 -62.5 12.5t-51.5 34t-34.5 50.5t-12.5 63t12.5 63.5t34.5 51.5t51.5 35t62.5 13t62.5 -13t51.5 -35t34.5 -51.5t12.5 -63.5t-12.5 -63t-34.5 -50.5t-51.5 -34t-62.5 -12.5zM181 614q-26 0 -44.5 -21t-18.5 -48t18.5 -48t44.5 -21t44.5 21t18.5 48
t-18.5 48t-44.5 21zM524 -8q-33 0 -62.5 12.5t-51.5 34t-34.5 50.5t-12.5 63t12.5 63.5t34.5 51.5t51.5 34.5t62.5 12.5t62.5 -12.5t51.5 -34.5t34.5 -51.5t12.5 -63.5t-12.5 -63t-34.5 -50.5t-51.5 -34t-62.5 -12.5zM524 224q-26 0 -44.5 -22.5t-18.5 -49.5t18.5 -49.5
t44.5 -22.5t44.5 22.5t18.5 49.5t-18.5 49.5t-44.5 22.5zM187 -30l-87 52l418 706l88 -52z" />
    <glyph glyph-name="ampersand" unicode="&#x26;" horiz-adv-x="632" 
d="M541 -13l-91 98q-46 -45 -99 -67t-111 -22q-46 0 -86 13.5t-69 42.5q-30 29 -45.5 69t-15.5 86q0 42 12 74.5t30 57t40 42t42 29.5l-22 24q-45 47 -45 112q0 34 13.5 63t36.5 50.5t53.5 34t65.5 12.5t65.5 -12.5t53.5 -34t36.5 -50.5t13.5 -63q0 -51 -28 -92.5t-80 -67.5
l-1 -1l132 -142q18 32 30 62.5t20 52.5l93 -32q-16 -47 -32.5 -86.5t-38.5 -74.5l101 -109zM218 335q-20 -12 -37 -24.5t-29.5 -27.5t-19.5 -33.5t-7 -42.5q0 -52 31 -84.5t84 -32.5q43 0 77.5 20.5t63.5 49.5zM250 612q-28 0 -47.5 -20t-19.5 -46q0 -25 17 -42v-1l38 -41
l27 14q7 4 16.5 10t17.5 15t13.5 20t5.5 25q0 26 -20 46t-48 20z" />
    <glyph glyph-name="quotesingle" unicode="'" horiz-adv-x="205" 
d="M100 458h-83l70 242h97z" />
    <glyph glyph-name="parenleft" unicode="(" horiz-adv-x="234" 
d="M130 295q0 -102 24 -198q22 -97 68 -188l-91 -45q-51 101 -76 209t-27 221q0 56 5.5 111.5t18.5 110.5q12 54 30 106.5t42 103.5l92 -44q-44 -91 -65 -188q-22 -99 -21 -199z" />
    <glyph glyph-name="parenright" unicode=")" horiz-adv-x="229" 
d="M110 726q25 -51 43 -103.5t30 -106.5q24 -110 24 -222q-2 -113 -27 -221q-26 -108 -76 -209l-91 45q46 91 68 188q24 96 24 198q1 100 -21 199q-21 97 -65 188l91 44v0z" />
    <glyph glyph-name="asterisk" unicode="*" horiz-adv-x="422" 
d="M374 615l29 -89l-117 -38l72 -100l-75 -54l-72 99l-73 -99l-75 54l72 100l-117 38l29 89l117 -38v123h93v-123l117 38v0z" />
    <glyph glyph-name="plus" unicode="+" horiz-adv-x="504" 
d="M301 534v-186h183v-97h-183v-185h-103v185h-182v97h182v186h103v0z" />
    <glyph glyph-name="comma" unicode="," horiz-adv-x="207" 
d="M86 -122h-99l83 263h116l-100 -263v0z" />
    <glyph glyph-name="hyphen" unicode="-" horiz-adv-x="328" 
d="M31 251v97h273v-97h-273v0z" />
    <glyph glyph-name="period" unicode="." horiz-adv-x="165" 
d="M150 62q0 -29 -20 -48.5t-48 -19.5q-29 0 -48.5 19.5t-19.5 48.5t19.5 48.5t48.5 19.5q28 0 48 -19.5t20 -48.5z" />
    <glyph glyph-name="slash" unicode="/" horiz-adv-x="292" 
d="M24 5l144 711l100 -20l-145 -711l-99 20v0z" />
    <glyph glyph-name="zero" unicode="0" horiz-adv-x="640" 
d="M616 350q0 -81 -20.5 -147t-59 -112.5t-93 -71.5t-123.5 -25t-123.5 25t-93 71.5t-59 112.5t-20.5 147q0 82 20.5 148t59 112.5t93 71.5t123.5 25t123.5 -25t93 -71.5t59 -112.5t20.5 -148zM320 90q50 0 86.5 20t60 55.5t34.5 83t11 101.5t-11 101.5t-34.5 83t-60 55.5
t-86.5 20t-86.5 -20t-60 -55.5t-34.5 -83t-11 -101.5t11 -101.5t34.5 -83t60 -55.5t86.5 -20z" />
    <glyph glyph-name="one" unicode="1" horiz-adv-x="306" 
d="M174 700h102v-700h-102v544h-10l-73 -79l-72 67l155 168v0z" />
    <glyph glyph-name="two" unicode="2" horiz-adv-x="397" 
d="M370 98v-98h-340v98q1 62 16.5 121t44.5 113q14 27 33 51t40 47q13 14 29 28t30 28.5t24 29t10 29.5q0 18 -10 34.5t-27 24.5q-5 2 -15 4q-2 0 -4.5 0.5t-10.5 -0.5q-17 -3 -27 -11q-27 -21 -26 -54l-102 1q0 33 12.5 62t34.5 51t51.5 35t63.5 13t66 -12.5t57 -41.5
q14 -14 23 -31.5t14 -37.5q6 -40 -2 -69.5t-25.5 -54t-42 -47.5t-50.5 -50q-30 -31 -57 -78q-22 -40 -33.5 -84t-11.5 -89l12 -12h223z" />
    <glyph glyph-name="three" unicode="3" horiz-adv-x="504" 
d="M464 315q25 -65 13 -134q-14 -69 -64 -119q-24 -24 -54.5 -40t-63.5 -23q-9 -2 -17.5 -3t-16.5 -1q-8 -1 -17 -0.5t-17 1.5q-33 3 -66 17q-30 13 -57 35q-26 22 -45 50q-10 14 -17 29.5t-12 31.5q-3 11 -6 28t-4 38l101 2q2 -29 11.5 -56.5t34.5 -47.5q16 -13 33 -20
q33 -14 75 -8q39 9 65 38q14 14 22 31.5t12 36.5q3 19 2 38t-9 37q-8 19 -19 33q-13 16 -27 26q-8 5 -16.5 9.5t-17.5 7.5q-17 7 -37 7h-7v98h7q23 2 39 15q11 9 20.5 25t9.5 39q0 13 -4.5 25.5t-14.5 23.5q-16 18 -36 22q-3 0 -5.5 0.5t-5.5 0.5h-3h-1h-2h-2h-3
q-9 -1 -20 -5q-9 -4 -19 -12l-7.5 -7.5t-6.5 -8.5q-12 -20 -11 -42h-101q0 37 16.5 72t46.5 61q46 38 112 40q33 0 64.5 -12.5t56.5 -37.5q37 -37 48 -89q2 -7 2.5 -14.5t0.5 -23.5q0 -14 -2.5 -30t-10.5 -33q-9 -24 -26 -44q-1 -3 -4 -4q27 -20 48 -45q21 -26 35 -58z" />
    <glyph glyph-name="four" unicode="4" horiz-adv-x="473" 
d="M448 238v-98h-70v-140h-105v124l-16 16h-233v98l249 462h105v-462h70zM139 238h118l16 17v232z" />
    <glyph glyph-name="five" unicode="5" horiz-adv-x="504" 
d="M252 457q47 0 89 -18.5t73 -50t49 -73.5t18 -90t-18 -90t-49 -73.5t-73 -49.5t-89 -18t-88.5 18t-72.5 49.5t-49 73.5t-18 90h98q0 -27 10 -51.5t28 -42.5t41.5 -28.5t50.5 -10.5t51 10.5t41.5 28.5t28 42.5t10.5 51.5q0 28 -10.5 52.5t-28 42.5t-41.5 28.5t-51 10.5
q-34 0 -63 -16.5t-47 -45.5l-90 34l46 272l16 98h300v-98h-217l-24 -143l13 -13q30 10 66 10z" />
    <glyph glyph-name="six" unicode="6" horiz-adv-x="509" 
d="M257 455q48 0 90 -18t73.5 -49.5t49.5 -73.5t18 -90t-18 -90t-49.5 -73.5t-73.5 -49.5t-90 -18q-46 0 -87 17t-72.5 47t-50.5 70.5t-21 86.5q-2 37 -1.5 74t8.5 75q14 78 53 148q20 35 45.5 65.5t57.5 55.5q16 13 32.5 24t34.5 20q9 5 18 9t19 8t20 7.5t21 5.5l21 -102
q-6 -2 -12.5 -3.5t-13.5 -3.5q-8 -2 -14.5 -5t-13.5 -6q-14 -7 -27 -14.5t-25 -16.5t-23.5 -19.5t-21.5 -21.5q-11 -11 -19.5 -23.5t-16.5 -25.5q-2 -5 -4.5 -9t-4.5 -9l9 -10q40 18 89 18zM257 92q26 0 49 10.5t40.5 28.5t27.5 42t10 51q0 28 -10 52t-27.5 42t-40.5 28.5
t-49 10.5t-49 -10.5t-40 -28.5t-27 -42t-10 -52q0 -27 10 -51t27 -42t40 -28.5t49 -10.5z" />
    <glyph glyph-name="seven" unicode="7" horiz-adv-x="395" 
d="M26 700h344v-98l-253 -609l-94 39l231 555l-15 15h-213v98v0z" />
    <glyph glyph-name="eight" unicode="8" horiz-adv-x="514" 
d="M387 418q47 -32 74.5 -82t27.5 -110q0 -48 -18.5 -90.5t-50 -74t-73.5 -50t-90 -18.5t-90.5 18.5t-74 50t-50 74t-18.5 90.5q0 60 28 110t74 82q-20 23 -31.5 52.5t-11.5 62.5q0 36 13.5 67.5t37.5 55t55.5 37t67.5 13.5t67.5 -13.5t55 -37t37 -55t13.5 -67.5
q0 -33 -11.5 -62.5t-31.5 -52.5zM187 533q0 -29 18 -50.5t44 -24.5h15q26 3 44 24.5t18 50.5q0 31 -20 53t-49 22t-49.5 -22t-20.5 -53zM257 93q26 0 49 10.5t40 28.5t27 42t10 52q0 27 -10 51.5t-27 42.5t-40 28.5t-49 10.5t-49.5 -10.5t-40.5 -28.5t-27 -42.5t-10 -51.5
q0 -28 10 -52t27 -42t40.5 -28.5t49.5 -10.5z" />
    <glyph glyph-name="nine" unicode="9" horiz-adv-x="406" 
d="M378 517q4 -42 1.5 -84t-14.5 -90q-10 -41 -27 -82q-8 -20 -17.5 -39t-20.5 -38q-21 -35 -47 -71q-14 -17 -28 -33t-29 -31q-14 -14 -30 -28t-34 -28l-62 83q64 46 115.5 111.5t77.5 143.5q2 6 3.5 12t3.5 12l-13 13q-14 -5 -28.5 -7.5t-30.5 -2.5q-36 0 -67.5 13.5
t-55.5 37.5t-37.5 55.5t-13.5 67.5t13.5 67.5t37.5 55.5t55.5 37.5t67.5 13.5q31 0 59.5 -11t51 -30t38.5 -45t23 -57q3 -11 4.5 -23t3.5 -23zM198 457q29 0 49.5 21.5t20.5 53.5t-20.5 54t-49.5 22t-49.5 -22t-20.5 -54t20.5 -53.5t49.5 -21.5z" />
    <glyph glyph-name="colon" unicode=":" horiz-adv-x="186" 
d="M160 62q0 -29 -19.5 -48.5t-48.5 -19.5t-48.5 19.5t-19.5 48.5t19.5 48.5t48.5 19.5t48.5 -19.5t19.5 -48.5zM160 397q0 -29 -19.5 -49t-48.5 -20t-48.5 20t-19.5 49q0 28 19.5 48t48.5 20t48.5 -20t19.5 -48z" />
    <glyph glyph-name="semicolon" unicode=";" horiz-adv-x="211" 
d="M181 397q0 -29 -20 -49t-49 -20q-28 0 -48 20t-20 49q0 28 20 48t48 20q29 0 49 -20t20 -48zM81 -122h-99l83 263h116z" />
    <glyph glyph-name="less" unicode="&#x3c;" horiz-adv-x="402" 
d="M323 552l62 -74l-213 -178l213 -179l-62 -74l-302 253l302 252v0z" />
    <glyph glyph-name="equal" unicode="=" horiz-adv-x="525" 
d="M24 162v98h475v-98h-475zM24 328v98h475v-98h-475z" />
    <glyph glyph-name="greater" unicode="&#x3e;" horiz-adv-x="404" 
d="M22 478l62 74l301 -252l-301 -253l-62 74l213 179l-213 178v0z" />
    <glyph glyph-name="question" unicode="?" horiz-adv-x="386" 
d="M193 188q-31 0 -58 11t-47.5 29.5t-32 44.5t-11.5 56q0 47 27.5 82t72.5 51l71 20q19 7 30.5 25.5t11.5 37.5q0 25 -19 44t-45 19q-27 0 -45.5 -19t-18.5 -44h-105q0 34 13 63.5t36 51t54 34t66 12.5t65.5 -12.5t53.5 -34t36.5 -51t13.5 -63.5q0 -26 -8.5 -50.5
t-23.5 -44.5t-36 -35.5t-46 -24.5l-71 -24q-13 -4 -20.5 -14t-7.5 -23q0 -17 12.5 -30t31.5 -13q11 0 21.5 7t15.5 16l89 -56q-20 -32 -54 -48.5t-72 -16.5zM261 62q0 -29 -20 -48.5t-48 -19.5q-29 0 -48.5 19.5t-19.5 48.5q0 28 19.5 48t48.5 20q28 0 48 -20t20 -48z" />
    <glyph glyph-name="at" unicode="@" horiz-adv-x="755" 
d="M584 140v1v-1zM637 79q-33 -29 -75 -49q-75 -37 -166 -37q-75 0 -144 26q-34 14 -63.5 32t-55.5 42q-51 47 -80 113q-15 32 -22 68.5t-7 74.5q0 79 28 142q28 64 79 114q25 24 54.5 42.5t62.5 32.5q68 28 143 28q62 0 124 -21q30 -11 57.5 -26t51.5 -35q49 -42 77 -100
q30 -59 30 -135q0 -51 -12 -88t-31 -64q-20 -26 -43 -42q-11 -8 -23 -14.5t-24 -10.5q-24 -9 -45 -12q-11 -2 -20 -3t-16 -1q-40 0 -59 17q-16 15 -18 34q-10 -9 -22 -17.5t-26 -16.5q-29 -17 -75 -17q-32 0 -57 12t-44 34q-20 23 -28 51q-11 31 -11 66q0 41 14 81
q13 38 38 69q24 30 60 49q37 17 81 17q39 0 65 -12q26 -13 39 -41l8 42h93l-36 -190q-1 -7 -2 -15t-3 -17q-3 -18 -3 -31q0 -10 5 -18q4 -7 19 -7q17 0 29 8q14 7 26 25q5 9 10 19.5t8 24.5q4 13 5.5 29t1.5 34q0 57 -18 101q-18 42 -51 72q-34 31 -79 44q-45 15 -99 15
q-59 0 -108 -20q-48 -20 -83 -56t-53 -85q-19 -48 -19 -108q0 -61 20 -112q21 -50 59 -83q38 -35 89 -53q26 -9 53.5 -14t57.5 -5q54 0 99 15q46 17 81 43zM443 319q4 19 4 41q0 37 -17 62q-17 24 -52 24q-44 0 -68 -34q-26 -34 -26 -83q0 -15 3 -30q3 -16 10 -27
q5 -10 19 -19q13 -7 32 -7q30 0 49 10t30 27q11 15 16 36z" />
    <glyph glyph-name="A" unicode="A" horiz-adv-x="506" 
d="M301 700l181 -700h-105l-27 106h-196l-27 -106h-105l181 700h98zM194 204h117l11 11l-70 270l-69 -270z" />
    <glyph glyph-name="B" unicode="B" horiz-adv-x="464" 
d="M435 231q0 -25 -4 -45l-6 -22t-8 -21q-9 -21 -22 -39.5t-29 -34.5q-23 -23 -53 -40t-63 -25q-10 -2 -19.5 -3t-20.5 -1h-1h-72h-105v700h105h72q33 0 64 -14q30 -12 54 -36q22 -23 36.5 -53t14.5 -65q0 -62 -45 -112q18 -12 33 -27q16 -17 29 -35.5t22 -38.5
q7 -17 11 -33t6 -33q0 -3 0.5 -6t0.5 -11v-5zM137 475l13 -14h59q14 -1 27 5.5t21 15.5q9 9 12.5 22t3.5 28q0 12 -3 26q-2 6 -5 12t-8 11q-20 21 -48 21h-72v-127zM322 181q4 11 6 23.5t2 32.5q-1 23 -9 46.5t-25 40.5q-18 19 -42 30q-6 2 -12 3.5t-12 3.5t-12.5 2h-13.5
h-54l-13 -13v-252h72h2q23 0 45.5 11t39.5 28q19 20 26 44z" />
    <glyph glyph-name="C" unicode="C" horiz-adv-x="706" 
d="M684 172q-23 -40 -55.5 -73t-72 -56.5t-85.5 -36.5t-95 -13q-73 0 -137.5 28t-112.5 76.5t-76 113.5t-28 139t28 139t76 113t112.5 76t137.5 28q49 0 95 -13t86 -36.5t72.5 -57t55.5 -73.5l-90 -51q-32 60 -89.5 97t-129.5 37q-52 0 -97.5 -20.5t-79.5 -55.5t-53.5 -82
t-19.5 -101t19.5 -101t53.5 -82t79.5 -55.5t97.5 -20.5q71 0 129 36.5t90 96.5z" />
    <glyph glyph-name="D" unicode="D" horiz-adv-x="508" 
d="M134 700q72 0 135.5 -27.5t110.5 -75t74.5 -111.5t27.5 -136t-27.5 -136t-74.5 -111.5t-110.5 -75t-135.5 -27.5h-5h-100v700h96h9zM147 96q48 3 90.5 23.5t74 55t49.5 79.5t18 96t-18 96t-49.5 79t-74 55t-90.5 24l-13 -14v-480z" />
    <glyph glyph-name="E" unicode="E" horiz-adv-x="397" 
d="M134 98h234v-98h-339v700h304v-98h-199v-130l14 -13h209v-98h-209l-14 -14v-249v0z" />
    <glyph glyph-name="F" unicode="F" horiz-adv-x="387" 
d="M149 459h208v-98h-208l-13 -14v-347h-105v700h46h59h198v-98h-198v-130l13 -13v0z" />
    <glyph glyph-name="G" unicode="G" horiz-adv-x="756" 
d="M730 399v-49q0 -74 -28 -139t-76 -113.5t-112.5 -76.5t-137.5 -28q-74 0 -138.5 28t-112.5 76.5t-76 113.5t-28 139t28 139t76 113t112.5 76t138.5 28q49 0 95 -13t86 -37t72 -57.5t55 -73.5l-89 -51q-16 30 -39 55t-51.5 42.5t-61 27.5t-67.5 10q-52 0 -97.5 -20.5
t-79.5 -55.5t-53.5 -82t-19.5 -101t19.5 -101t53.5 -82t79.5 -55.5t97.5 -20.5q44 0 84 15t72 41.5t54.5 63t32.5 79.5l-11 10h-77v99h90h106h3z" />
    <glyph glyph-name="H" unicode="H" 
d="M334 700h105v-700h-105v347l-14 14h-172l-13 -14v-347h-105v700h105v-241h199v241v0z" />
    <glyph glyph-name="I" unicode="I" horiz-adv-x="243" 
d="M210 602h-37v-490l14 -14h23v-98h-37h-105h-36v98h22l14 14v490h-36v98h178v-98v0z" />
    <glyph glyph-name="J" unicode="J" horiz-adv-x="225" 
d="M190 3v-7v-2v-2q0 -9 -0.5 -14.5t-1.5 -10.5q-4 -20 -12.5 -38t-20.5 -34q-25 -32 -60 -50t-76 -20v102q16 -1 32 5q7 4 13 9t11 13q10 15 10 30v604l-14 14h-34v98h48h91h14v-697z" />
    <glyph glyph-name="K" unicode="K" horiz-adv-x="473" 
d="M453 700l-205 -233l198 -467h-106l-160 376h-12l-31 -36v-340h-105v700h105v-196h8l173 196h135v0z" />
    <glyph glyph-name="L" unicode="L" horiz-adv-x="408" 
d="M151 98h226v-98h-240h-105v700h105v-588l14 -14v0z" />
    <glyph glyph-name="M" unicode="M" horiz-adv-x="553" 
d="M416 700h105v-700h-105v510h-9l-130 -183l-130 183h-10v-510h-105v700h105l130 -184h19l130 184v0v0z" />
    <glyph glyph-name="N" unicode="N" horiz-adv-x="464" 
d="M327 700h105v-700h-105v334l-178 199h-12v-533h-105v700h105v0l177 -199h13v199v0z" />
    <glyph glyph-name="O" unicode="O" horiz-adv-x="758" 
d="M378 706q73 0 138 -28t113 -76t76 -113t28 -139t-28 -139t-76 -113.5t-113 -76.5t-138 -28q-74 0 -138.5 28t-112.5 76.5t-75.5 113.5t-27.5 139t27.5 139t75.5 113t112.5 76t138.5 28zM378 91q52 0 97.5 20.5t79.5 55.5t53.5 82t19.5 101t-19.5 101t-53.5 82t-79.5 55.5
t-97.5 20.5t-97.5 -20.5t-79.5 -55.5t-53.5 -82t-19.5 -101t19.5 -101t53.5 -82t79.5 -55.5t97.5 -20.5z" />
    <glyph glyph-name="P" unicode="P" horiz-adv-x="403" 
d="M209 700q34 0 65 -13.5t53.5 -36.5t36 -54t13.5 -66t-13.5 -66t-36 -54t-53.5 -36.5t-65 -13.5h-59l-13 -13v-347h-105v700h88h17h72zM209 458q29 0 49.5 21t20.5 51t-20.5 51t-49.5 21h-72v-130l14 -14h58z" />
    <glyph glyph-name="Q" unicode="Q" horiz-adv-x="759" 
d="M554 31h-16q-36 -18 -76 -28t-84 -10q-73 0 -137.5 28t-112.5 76.5t-76 113.5t-28 139t28 139t76 113t112.5 76t137.5 28t138 -28t113 -76t76 -113t28 -139q0 -71 -25 -132.5t-69 -109.5v-17l98 -90h-150zM129 350q0 -54 19.5 -101t53 -82t79 -55.5t97.5 -20.5
q48 0 92 18l-17 15l68 75l35 -32q34 35 53 82t19 101t-19.5 101t-53.5 82t-79.5 55.5t-97.5 20.5t-97.5 -20.5t-79 -55.5t-53 -82t-19.5 -101z" />
    <glyph glyph-name="R" unicode="R" horiz-adv-x="423" 
d="M299 0l-135 360h-13l-14 -14v14v-360h-105v700h88h17h72q34 0 64.5 -13.5t53.5 -36.5t36 -54t13 -66q0 -54 -30 -97t-78 -62l139 -371h-108zM137 472l13 -14h59q29 0 49 21t20 51t-20 51t-49 21h-72v-144v14z" />
    <glyph glyph-name="S" unicode="S" horiz-adv-x="496" 
d="M247 -7q-46 0 -86.5 16.5t-71 45.5t-48 67.5t-17.5 83.5h105q0 -23 9.5 -44t25.5 -36.5t37.5 -25t45.5 -9.5t45.5 9.5t37.5 25t25.5 36.5t9.5 44q0 35 -21.5 64.5t-56.5 41.5l-104 35q-29 10 -53 27t-41 40t-26.5 50.5t-9.5 57.5q0 39 15.5 72.5t41.5 58.5t61.5 39
t75.5 14q51 0 94.5 -21.5t69.5 -63.5l-88 -56q-12 19 -32.5 31t-43.5 12q-18 0 -34.5 -7t-28.5 -19t-19 -27.5t-7 -32.5q0 -26 16.5 -46.5t42.5 -29.5l103 -38q34 -11 61.5 -31t47 -46.5t30.5 -58.5t11 -66q0 -45 -17.5 -83.5t-48 -67.5t-71 -45.5t-86.5 -16.5z" />
    <glyph glyph-name="T" unicode="T" horiz-adv-x="409" 
d="M28 700h351v-98h-109l-14 -14v-588h-104v588l-14 14h-110v98v0z" />
    <glyph glyph-name="U" unicode="U" 
d="M439 700v-72v-103v-114v-105v-76t0 -26v-204h-92l-13 25q-16 -9 -38 -16q-30 -9 -60 -9q-31 0 -61 9q-29 9 -55 26q-25 17 -44.5 41.5t-30.5 53.5q-5 14 -8 26t-5 34v510h105v-504q0 -21 11 -43t30 -36q26 -20 58 -20q20 0 37.5 8t30.5 22t21 32.5t10 39.5v501h104v0z
" />
    <glyph glyph-name="V" unicode="V" horiz-adv-x="501" 
d="M375 700h105l-181 -700h-98l-181 700h105l118 -459h14l118 459v0z" />
    <glyph glyph-name="W" unicode="W" horiz-adv-x="554" 
d="M430 700h102l-64 -700h-105l-76 203h-19l-76 -203h-106l-64 700h102l41 -449h12l53 140h95l52 -140h12l41 449v0z" />
    <glyph glyph-name="X" unicode="X" horiz-adv-x="490" 
d="M360 0l-107 234h-20l-108 -234h-111l173 379l-147 321h112l81 -177h20l81 177h112l-147 -321l173 -379h-112v0z" />
    <glyph glyph-name="Y" unicode="Y" horiz-adv-x="443" 
d="M313 700h114l-154 -300v-400h-105v400l-154 300h114l82 -159h22l81 159v0z" />
    <glyph glyph-name="Z" unicode="Z" horiz-adv-x="379" 
d="M145 98h208v-98h-327v98l201 494l-10 10h-176v98h296v-98l-201 -494l9 -10v0z" />
    <glyph glyph-name="bracketleft" unicode="[" horiz-adv-x="283" 
d="M87 733h55h118v-84h-118v-705h118v-84h-118h-55h-55v873h55v0z" />
    <glyph glyph-name="backslash" unicode="\" horiz-adv-x="276" 
d="M16 696l99 20l145 -711l-100 -20l-144 711v0z" />
    <glyph glyph-name="bracketright" unicode="]" horiz-adv-x="277" 
d="M134 733h56h55v-873h-55h-56h-117v84h117v705h-117v84h117v0z" />
    <glyph glyph-name="asciicircum" unicode="^" horiz-adv-x="428" 
d="M348 461l-135 126l-135 -126l-67 72l202 188l202 -188l-67 -72v0z" />
    <glyph glyph-name="underscore" unicode="_" horiz-adv-x="447" 
d="M10 0h427v-98h-427v98z" />
    <glyph glyph-name="a" unicode="a" horiz-adv-x="433" 
d="M405 281q1 -54 0 -107v-24v-150h-101v11q-3 -2 -6.5 -2.5t-6.5 -2.5q-33 -10 -67 -12h-9h-3h-5q-29 0 -58.5 8.5t-55.5 26.5q-15 11 -28.5 24.5t-23.5 31.5q-10 20 -14 39q-1 5 -1.5 10.5t-0.5 10.5q0 30 7.5 53.5t21.5 40.5q25 32 61 48q17 8 33 11.5t33 5.5q30 3 62 0
q25 -2 50 -9l9 9q-3 18 -10 29q-12 20 -38 29q-12 5 -35 6q-20 0 -41.5 -3.5t-38.5 -14.5l-57 75q27 20 62.5 28.5t73.5 10.5h14q26 -2 53 -9q13 -5 26 -11t24 -15q26 -19 41 -43q14 -23 21 -49.5t8 -55.5zM304 174v15l-14 14q-2 1 -5 1.5t-5 1.5q-22 5 -42 5q-6 1 -12 0.5
t-12 -0.5q-5 0 -10.5 -0.5t-10.5 -1.5q-20 -3 -36 -11q-13 -7 -22 -19q-8 -11 -9 -24v-7q0 -8 4 -16q7 -13 19 -23q15 -12 33 -16q7 -2 15.5 -3.5t22.5 -1.5q10 1 19.5 2.5t18.5 5.5q17 6 29 18q6 6 11.5 16.5t5.5 21.5v22z" />
    <glyph glyph-name="b" unicode="b" horiz-adv-x="519" 
d="M492 230v-1q0 -46 -18 -88.5t-49.5 -75.5t-74 -52.5t-92.5 -19.5q-23 1 -45.5 5.5t-43.5 14.5q-8 3 -17 8l-21 -20v-1h-101v700h101v-276q9 6 18.5 11.5t19.5 9.5q21 10 43.5 14.5t45.5 5.5q48 0 90 -18q42 -17 75 -50t52 -78q8 -19 12 -40t5 -45v-4zM391 236
q-1 26 -11.5 49t-28 41t-41.5 28.5t-52 12.5q-28 0 -53 -10.5t-44 -29.5t-30 -44t-11 -54q0 -27 10.5 -52t29 -44t44 -30.5t54.5 -11.5q28 0 52 11t41.5 30t28 44t11.5 53v7z" />
    <glyph glyph-name="c" unicode="c" horiz-adv-x="488" 
d="M376 297q-17 33 -46.5 50.5t-62 19.5t-64 -12t-52.5 -42q-26 -37 -26 -84q1 -30 12.5 -56.5t30.5 -46t44.5 -30t55.5 -8.5q37 3 64 23t44 49l88 -49q-42 -69 -115 -100q-17 -8 -36 -11.5t-38 -5.5q-20 -2 -39 0t-38 7q-37 11 -69 32q-33 21 -56 52q-25 33 -37 68
q-12 36 -12 76q0 63 24.5 110t63.5 76.5t87.5 41t97.5 3.5t93 -36t74 -77z" />
    <glyph glyph-name="d" unicode="d" horiz-adv-x="516" 
d="M486 700v-700h-101v1l-20 20q-5 -2 -9 -4t-9 -4q-40 -18 -89 -20q-48 0 -90 18q-44 18 -76 52q-17 16 -29.5 35.5t-21.5 40.5q-16 42 -16.5 88.5t16.5 91.5q8 21 21 40t30 36q32 34 76 52q42 18 90 18q49 -2 89 -20q11 -4 20 -9.5t18 -11.5v276h101zM258 91
q26 -1 51.5 9.5t45.5 29.5q19 19 31 45q10 24 10 54t-10 54q-12 26 -31 45q-20 19 -45.5 29t-51.5 10q-14 -1 -26.5 -3.5t-24.5 -7.5q-24 -11 -43 -31q-10 -9 -17 -20.5t-12 -23.5q-2 -6 -4 -12.5t-3 -12.5q-5 -30 3.5 -65t32.5 -58q19 -20 43 -31q25 -11 51 -11z" />
    <glyph glyph-name="e" unicode="e" horiz-adv-x="495" 
d="M470 210h-330l-10 -9q2 -7 3.5 -13.5t4.5 -13.5q8 -21 23.5 -39t35.5 -29q22 -13 42 -16q6 -1 12 -1.5t12 -0.5q5 0 11 0.5t11 1.5q23 5 43 17q10 6 18 14t16 17l76 -67q-26 -28 -62 -48q-24 -14 -52.5 -21.5t-60.5 -7.5q-38 0 -77 12q-18 6 -36 15q-35 19 -62.5 48
t-42.5 66q-15 36 -19 75t4 77t29 72t57 59q17 11 34 20.5t37 15.5q5 2 21 4.5t38 3.5t47 -2t48 -12q38 -14 68 -43q31 -29 46 -69q4 -10 6.5 -19.5t4.5 -19.5q1 -6 2 -14.5t2 -24.5v-48zM216 364q-20 -7 -35 -18.5t-28 -28.5l4 -12h204q-6 16 -20 31q-8 8 -21.5 15.5
t-30.5 12t-36 5.5t-37 -5z" />
    <glyph glyph-name="f" unicode="f" horiz-adv-x="263" 
d="M239 608q-17 5 -33.5 3.5t-30.5 -9t-22.5 -21.5t-8.5 -33v-90h74v-94h-74q2 -91 1 -182t-1 -182h-102v343l-20 21v94h21v85q0 40 16 75t45.5 57.5t72 29.5t95.5 -9z" />
    <glyph glyph-name="g" unicode="g" horiz-adv-x="516" 
d="M486 15v-17q0 -4 -0.5 -9t-0.5 -10q-2 -23 -7 -42q-10 -41 -33 -76t-57 -60q-17 -12 -36 -21.5t-39 -15.5q-39 -12 -82 -9q-22 2 -41 6q-11 3 -20.5 6t-19.5 8q-38 17 -69 46l68 70q36 -39 88 -42q25 -2 49 6t44 23q40 32 51 82q3 12 3 25v13v36q-19 -13 -37 -21
q-44 -19 -90 -19q-45 -2 -90 17q-42 18 -76 52q-32 33 -50 76q-17 45 -17 90v1v4v6q0 8 1 12q0 6 1 11.5t2 11.5q5 23 13 44q18 43 50 76q34 34 76 52q45 19 90 17q46 0 90 -19q8 -3 16 -8l21 21h102v-443zM257 91q56 0 97 39q21 21 31 45q11 27 11 54t-11 54q-10 24 -31 45
q-41 39 -97 39q-13 -1 -26 -3.5t-25 -8.5q-26 -11 -43 -30q-19 -21 -28 -44q-3 -6 -4.5 -12.5t-3.5 -12.5q-1 -4 -1 -7t-1 -7v-6v-3v-4q0 -29 10 -52q10 -26 28 -44q17 -19 43 -30q12 -6 25 -8.5t26 -3.5z" />
    <glyph glyph-name="h" unicode="h" horiz-adv-x="443" 
d="M413 0h-101v45.5v56v76.5v107q0 19 -10 39q-7 12 -16.5 22t-22.5 16q-6 3 -12.5 4.5t-14.5 3.5q-16 2 -28 -1q-30 -6 -51 -29q-12 -12 -19 -31.5t-7 -33.5v-275h-101v700h101v-242l20 -14q8 4 16.5 7.5t17.5 6.5q14 4 29 6t29 0q32 -2 59 -13q26 -10 50 -31
q23 -21 38 -47q16 -28 20 -57q3 -15 3 -30v-286z" />
    <glyph glyph-name="i" unicode="i" horiz-adv-x="174" 
d="M136 0h-101v458h101v-458zM148 575q0 -26 -18 -44t-44 -18t-44 18t-18 44t18 44t44 18t44 -18t18 -44z" />
    <glyph glyph-name="j" unicode="j" horiz-adv-x="189" 
d="M154 -86q0 -17 -7 -41.5t-21 -43.5q-19 -29 -45 -47q-27 -18 -60 -26q-6 -2 -24 -3t-40 2l14 93q29 -5 53 13q11 8 19.5 22t8.5 31v429l-20 21v94h122v-544zM157 575q0 -26 -18 -44t-44 -18t-44 18t-18 44t18 44t44 18t44 -18t18 -44z" />
    <glyph glyph-name="k" unicode="k" horiz-adv-x="431" 
d="M162 224h-16l-15 -13v-211h-101v700h101v-349h11l119 107h143l-174 -157l182 -301h-114l-136 224v0z" />
    <glyph glyph-name="l" unicode="l" horiz-adv-x="161" 
d="M131 0h-101v700h101v-700v0z" />
    <glyph glyph-name="m" unicode="m" horiz-adv-x="724" 
d="M695 0h-101v45.5v55.5v76.5v107.5q0 19 -10 39q-10 17 -27.5 30t-38.5 15q-18 2 -36.5 -3t-33.5 -15.5t-25 -27t-10 -37.5v-286h-101q0 22 -0.5 45.5t-0.5 55.5t0.5 76.5t0.5 107.5q0 19 -10 39q-14 24 -39 37q-15 7 -27 8q-21 2 -40.5 -4t-33.5 -19t-22.5 -32.5
t-8.5 -43.5v-270h-101v458h101l20 -15q16 9 34 14q27 9 58 7q32 -2 58 -13q28 -10 51 -32q7 -5 13 -11.5t11 -13.5q26 34 65 53t84 17q32 -2 58 -13q28 -10 51 -32q22 -19 38 -46q22 -40 23 -87v-286z" />
    <glyph glyph-name="n" unicode="n" horiz-adv-x="443" 
d="M413 0h-101v45.5v56v76.5v107v6.5t-1 7.5q-4 14 -9 25q-14 26 -39 38q-12 5 -26.5 7.5t-28.5 -0.5q-30 -6 -51 -29q-11 -11 -18.5 -29t-7.5 -35v-276h-101v458h101l20 -14q8 4 16.5 7.5t17.5 5.5q27 9 58 7q32 -2 59 -13q26 -10 50 -31q23 -21 38 -47q11 -19 17 -41
t6 -46v-286z" />
    <glyph glyph-name="o" unicode="o" horiz-adv-x="519" 
d="M259 464q49 0 91.5 -18.5t74.5 -50.5t50.5 -74.5t18.5 -91.5t-18.5 -91.5t-50.5 -74.5t-74.5 -50.5t-91.5 -18.5t-91.5 18.5t-74.5 50.5t-50.5 74.5t-18.5 91.5t18.5 91.5t50.5 74.5t74.5 50.5t91.5 18.5zM259 88q28 0 52.5 11t42.5 30t28.5 45t10.5 55t-10.5 54.5
t-28.5 44.5t-42.5 30t-52.5 11t-52.5 -11t-42.5 -30t-28.5 -44.5t-10.5 -54.5t10.5 -55t28.5 -45t42.5 -30t52.5 -11z" />
    <glyph glyph-name="p" unicode="p" horiz-adv-x="518" 
d="M258 465q49 0 92 -18.5t75 -50.5t50.5 -75t18.5 -92t-18.5 -92t-50.5 -75t-75 -50.5t-92 -18.5q-35 0 -67 10t-60 27v-272h-101v700h101v-1l19 -18q24 12 51.5 19t56.5 7zM258 88q28 0 52.5 11t43 30t29 45t10.5 55t-10.5 55t-29 45t-43 30t-52.5 11t-52.5 -11t-42.5 -30
t-28.5 -45t-10.5 -55t10.5 -55t28.5 -45t42.5 -30t52.5 -11z" />
    <glyph glyph-name="q" unicode="q" horiz-adv-x="519" 
d="M24 229q0 49 18.5 92t50.5 75t75 50.5t92 18.5q29 0 56.5 -7t51.5 -19l19 18v1h102v-700h-102v272q-28 -17 -60 -27t-67 -10q-49 0 -92 18.5t-75 50.5t-50.5 75t-18.5 92zM126 229q0 -29 10.5 -55t28.5 -45t42.5 -30t52.5 -11t52.5 11t42.5 30t28.5 45t10.5 55t-10.5 55
t-28.5 45t-42.5 30t-52.5 11t-52.5 -11t-42.5 -30t-28.5 -45t-10.5 -55z" />
    <glyph glyph-name="r" unicode="r" horiz-adv-x="293" 
d="M244 458q8 -1 15 -1.5t15 -2.5l-28 -93q-6 2 -10 2q-16 2 -28 -1q-29 -5 -51 -28q-5 -6 -9.5 -12t-7.5 -14q-2 -5 -5.5 -18t-3.5 -26v-264h-101v458h101l21 -20q8 4 16 7.5t17 5.5q14 4 29 6t30 1z" />
    <glyph glyph-name="s" unicode="s" horiz-adv-x="385" 
d="M193 -7q-35 0 -66 11.5t-54 32t-36 47.5t-13 58h99q0 -20 20.5 -36t49.5 -16q28 0 48.5 16t20.5 36q0 14 -12 27t-32 18l-72 21q-46 14 -74 48t-28 77q0 27 11.5 51t32 41.5t47.5 28t58 10.5q64 0 108 -42l-69 -72q-7 7 -17.5 12.5t-21.5 5.5q-22 0 -35.5 -10.5
t-13.5 -24.5q0 -9 8 -18t22 -13l72 -21q52 -15 83.5 -53t31.5 -86q0 -31 -13 -58t-36 -47.5t-53.5 -32t-65.5 -11.5z" />
    <glyph glyph-name="t" unicode="t" horiz-adv-x="262" 
d="M242 -6q-29 -3 -57 1.5t-55 18.5q-26 15 -45 37.5t-30 51.5q-4 12 -7 26t-3 28v185l-21 21v95h21v162h102v-162h73v-95h-73v-209q0 -9 3 -18q8 -25 29 -38q22 -14 49 -10z" />
    <glyph glyph-name="u" unicode="u" horiz-adv-x="444" 
d="M414 458v-458h-102l-19 15q-17 -9 -34 -14q-27 -9 -59 -7t-58 13q-28 10 -51 32q-23 20 -37 46q-13 23 -18.5 49t-5.5 61v263h102v-285q0 -21 8.5 -37.5t23 -28t33.5 -16.5t39 -2q34 5 55 27t21 63v279h102z" />
    <glyph glyph-name="v" unicode="v" horiz-adv-x="440" 
d="M319 458h104l-157 -458h-93l-157 458h103l94 -274h12l94 274v0z" />
    <glyph glyph-name="w" unicode="w" horiz-adv-x="692" 
d="M572 458h104l-158 -458h-92l-75 261h-11l-74 -261h-93l-157 458h103l90 -261h11l75 261h102l74 -261h12l89 261v0z" />
    <glyph glyph-name="x" unicode="x" horiz-adv-x="480" 
d="M342 0l-96 139h-15l-96 -139h-119l163 236l-153 222h119l86 -125h15l87 125h119l-154 -222l163 -236h-119v0z" />
    <glyph glyph-name="y" unicode="y" horiz-adv-x="472" 
d="M349 458h104l-253 -706h-105l89 247l-164 459h104l106 -295h13l106 295v0z" />
    <glyph glyph-name="z" unicode="z" horiz-adv-x="369" 
d="M343 364l-191 -261l9 -9h182v-94h-319v94l191 261l-9 9h-166v94h303v-94v0z" />
    <glyph glyph-name="braceleft" unicode="{" horiz-adv-x="300" 
d="M281 731v-94h-35q-18 0 -30 -7.5t-17 -17.5q-3 -7 -5 -23l2 -159q0 -35 -8 -70t-34 -61q1 0 1 -1q22 -20 31 -48q1 -5 2.5 -13t3 -30.5t2 -66t0.5 -118.5v-18q0 -5 1 -8q0 -5 4 -15q4 -8 10.5 -13.5t14.5 -8.5q12 -4 26.5 -3.5t30.5 0.5v-95q-16 -1 -31 0q-13 0 -27 1.5
t-25 3.5q-26 5 -48 21.5t-37 39.5q-15 22 -21 50q-3 13 -3 27v18l1 187q0 4 -1 10t-4 11q-6 8 -13 14q-19 13 -51 21v79q29 2 48 11q7 5 13.5 11.5t6.5 17.5v4v183v18q0 13 3 27q6 28 21 50q31 47 85 61q7 2 14.5 2.5t24.5 1.5h9h35z" />
    <glyph glyph-name="bar" unicode="|" horiz-adv-x="196" 
d="M46 -98v805h105v-805h-105v0z" />
    <glyph glyph-name="braceright" unicode="}" horiz-adv-x="300" 
d="M20 -139v94h35q18 0 30 7.5t17 17.5q3 7 5 23l-2 159q0 35 8 70t34 61q-1 0 -1 1q-22 20 -31 48q-2 5 -3 13t-2.5 30.5t-2 66t-0.5 118.5v18q0 5 -1 8q0 5 -4 15q-8 15 -25 22q-12 4 -26.5 3.5t-30.5 -0.5v95h31q13 -1 27 -2t25 -3q26 -5 48 -21.5t37 -39.5
q15 -22 21 -50q3 -14 3 -27v-18l-1 -187q0 -4 1 -10t4 -11q6 -8 13 -14q19 -13 51 -21v-79q-29 -2 -48 -11q-7 -5 -13.5 -11.5t-6.5 -17.5v-4v-183v-18q0 -14 -3 -27q-6 -28 -21 -50q-31 -47 -85 -61q-7 -2 -14.5 -2.5t-24.5 -1.5h-9h-35z" />
    <glyph glyph-name="asciitilde" unicode="~" 
d="M317 322q29 8 40 37l91 -32q-13 -37 -41 -62.5t-66 -35.5q-22 -5 -39 -5q-58 0 -103 40q-23 21 -52 13q-30 -8 -40 -37l-91 32q13 37 41 63t66 35q38 10 75 0.5t66 -35.5q11 -10 25 -13t28 0z" />
    <glyph glyph-name="copyright" unicode="&#xa9;" horiz-adv-x="587" 
d="M298 191q-33 0 -61.5 12.5t-49.5 34t-33.5 50t-12.5 61.5t12.5 62t33.5 50.5t49.5 34t61.5 12.5q42 0 78.5 -21t57.5 -59l-71 -40q-10 18 -27.5 28.5t-37.5 10.5q-32 0 -54 -23t-22 -55t22 -54.5t54 -22.5q20 0 37.5 10.5t27.5 28.5l71 -40q-21 -38 -57.5 -59t-78.5 -21z
M294 61q-59 0 -110.5 22.5t-90 61.5t-61 91.5t-22.5 112.5t22.5 112.5t61 92t90 62t110.5 22.5t110.5 -22.5t90 -62t61 -92t22.5 -112.5t-22.5 -112.5t-61 -91.5t-90 -61.5t-110.5 -22.5zM294 554q-41 0 -77.5 -16t-63.5 -44t-43 -65.5t-16 -79.5t16 -79t43 -65t63.5 -44
t77.5 -16q42 0 78.5 16t63.5 44t43 65t16 79t-16 79.5t-43 65.5t-63.5 44t-78.5 16z" />
    <glyph glyph-name="guillemotleft" unicode="&#xab;" horiz-adv-x="478" 
d="M259 431l-110 -131l110 -132l-74 -62l-163 194l163 193zM382 493l73 -62l-110 -131l110 -132l-73 -62l-163 194z" />
    <glyph glyph-name="plusminus" unicode="&#xb1;" horiz-adv-x="460" 
d="M281 395h160v-98h-160v-96h-105v96h-160v98h160v97h105v-97zM16 73v98h425v-98h-425z" />
    <glyph glyph-name="guillemotright" unicode="&#xbb;" horiz-adv-x="472" 
d="M216 431l74 62l163 -193l-163 -194l-74 62l111 132zM94 493l163 -193l-163 -194l-74 62l111 132l-111 131z" />
    <glyph glyph-name="Agrave" unicode="&#xc0;" horiz-adv-x="499" 
d="M299 700h-98l-181 -700h105l27 106h196l27 -106h105zM192 204l-11 11l69 270l70 -270l-11 -11h-117zM164 885h96l56 -135h-65z" />
    <glyph glyph-name="Aacute" unicode="&#xc1;" horiz-adv-x="502" 
d="M299 700h-98l-181 -700h105l27 106h196l27 -106h105zM192 204l-11 11l69 270l70 -270l-11 -11h-117zM244 750h-65l56 135h96z" />
    <glyph glyph-name="Acircumflex" unicode="&#xc2;" horiz-adv-x="498" 
d="M299 700h-98l-181 -700h105l27 106h196l27 -106h105zM192 204l-11 11l69 270l70 -270l-11 -11h-117zM291 750l-42 34l-42 -34h-94l136 128l137 -128h-95z" />
    <glyph glyph-name="Atilde" unicode="&#xc3;" horiz-adv-x="501" 
d="M480 0h-105l-27 106h-196l-27 -106h-105l181 700h98zM309 204l11 11l-70 270l-69 -270l11 -11h117zM311 820q20 7 26 28l60 -24q-8 -29 -27 -48t-43 -27q-7 -2 -13 -3t-13 -1q-38 0 -67 31q-14 15 -34 10q-20 -7 -26 -29l-59 25q8 28 26.5 47.5t43.5 26.5q24 8 48.5 1
t43.5 -27q14 -15 34 -10z" />
    <glyph glyph-name="Adieresis" unicode="&#xc4;" horiz-adv-x="498" 
d="M299 700h-98l-181 -700h105l27 106h196l27 -106h105zM192 204l-11 11l69 270l70 -270l-11 -11h-117zM331 834q18 0 30.5 -12.5t12.5 -30.5q0 -17 -12.5 -29.5t-30.5 -12.5q-17 0 -29.5 12.5t-12.5 29.5q0 18 12.5 30.5t29.5 12.5zM167 834q18 0 30.5 -12.5t12.5 -30.5
q0 -17 -12.5 -29.5t-30.5 -12.5q-17 0 -29.5 12.5t-12.5 29.5q0 18 12.5 30.5t29.5 12.5z" />
    <glyph glyph-name="Aring" unicode="&#xc5;" horiz-adv-x="700" 
 />
    <glyph glyph-name="Egrave" unicode="&#xc8;" horiz-adv-x="500" 
d="M86 885h96l56 -135h-65zM134 98v249l14 14h209v98h-209l-14 13v130h199v98h-304v-700h339v98h-234z" />
    <glyph glyph-name="Eacute" unicode="&#xc9;" horiz-adv-x="399" 
d="M187 750h-65l56 135h96zM134 98v249l14 14h209v98h-209l-14 13v130h199v98h-304v-700h339v98h-234z" />
    <glyph glyph-name="Ecircumflex" unicode="&#xca;" horiz-adv-x="396" 
d="M220 750l-42 34l-42 -34h-94l136 128l137 -128h-95zM134 98v249l14 14h209v98h-209l-14 13v130h199v98h-304v-700h339v98h-234z" />
    <glyph glyph-name="Edieresis" unicode="&#xcb;" horiz-adv-x="397" 
d="M259 834q18 0 30.5 -12.5t12.5 -30.5q0 -17 -12.5 -29.5t-30.5 -12.5q-17 0 -29.5 12.5t-12.5 29.5q0 18 12.5 30.5t29.5 12.5zM95 834q18 0 30.5 -12.5t12.5 -30.5q0 -17 -12.5 -29.5t-30.5 -12.5q-17 0 -29.5 12.5t-12.5 29.5q0 18 12.5 30.5t29.5 12.5zM134 98v249
l14 14h209v98h-209l-14 13v130h199v98h-304v-700h339v98h-234z" />
    <glyph glyph-name="Igrave" unicode="&#xcc;" horiz-adv-x="244" 
d="M210 602v98h-178v-98h36v-490l-14 -14h-22v-98h36h105h37v98h-23l-14 14v490h37zM31 885h96l56 -135h-65z" />
    <glyph glyph-name="Iacute" unicode="&#xcd;" horiz-adv-x="243" 
d="M119 750h-65l56 135h96zM210 602v98h-178v-98h36v-490l-14 -14h-22v-98h36h105h37v98h-23l-14 14v490h37z" />
    <glyph glyph-name="Icircumflex" unicode="&#xce;" horiz-adv-x="245" 
d="M210 602v98h-178v-98h36v-490l-14 -14h-22v-98h178v98h-23l-14 14v490h37zM165 750l-42 34l-42 -34h-94l136 128l137 -128h-95z" />
    <glyph glyph-name="Idieresis" unicode="&#xcf;" horiz-adv-x="245" 
d="M210 602v98h-178v-98h36v-490l-14 -14h-22v-98h178v98h-23l-14 14v490h37zM204 834q18 0 30.5 -12.5t12.5 -30.5q0 -17 -12.5 -29.5t-30.5 -12.5q-17 0 -29.5 12.5t-12.5 29.5q0 18 12.5 30.5t29.5 12.5zM40 834q18 0 30.5 -12.5t12.5 -30.5q0 -17 -12.5 -29.5
t-30.5 -12.5q-17 0 -29.5 12.5t-12.5 29.5q0 18 12.5 30.5t29.5 12.5z" />
    <glyph glyph-name="Eth" unicode="&#xd0;" horiz-adv-x="623" 
d="M240 700q73 0 137.5 -27.5t112.5 -75t75.5 -111.5t27.5 -136t-27.5 -136t-75.5 -111.5t-112.5 -75t-137.5 -27.5h-3h-105v292h-118v98h118v310h105h3zM240 101q52 0 97 19.5t79 53t53.5 79t19.5 97.5q0 50 -18.5 94.5t-51 78t-76 54t-92.5 22.5l-14 -14v-195h117v-98
h-117v-191h3z" />
    <glyph glyph-name="Ntilde" unicode="&#xd1;" horiz-adv-x="464" 
d="M281 820q20 7 26 28l60 -24q-8 -29 -27 -48t-43 -27q-7 -2 -13 -3t-13 -1q-38 0 -67 31q-14 15 -34 10q-20 -7 -26 -29l-59 25q8 28 26.5 47.5t43.5 26.5q24 8 48.5 1t43.5 -27q14 -15 34 -10zM432 700v-700h-105v334l-178 199h-12v-533h-105v700h105l177 -199h13v199
h105z" />
    <glyph glyph-name="Ograve" unicode="&#xd2;" horiz-adv-x="759" 
d="M378 706q-74 0 -138.5 -28t-112.5 -76t-75.5 -113t-27.5 -139t27.5 -139t75.5 -113.5t112.5 -76.5t138.5 -28q73 0 138 28t113 76.5t76 113.5t28 139t-28 139t-76 113t-113 76t-138 28zM378 91q-52 0 -97.5 20.5t-79.5 55.5t-53.5 82t-19.5 101t19.5 101t53.5 82
t79.5 55.5t97.5 20.5t97.5 -20.5t79.5 -55.5t53.5 -82t19.5 -101t-19.5 -101t-53.5 -82t-79.5 -55.5t-97.5 -20.5zM277 885h96l56 -135h-65z" />
    <glyph glyph-name="Oacute" unicode="&#xd3;" horiz-adv-x="759" 
d="M378 706q-74 0 -138.5 -28t-112.5 -76t-75.5 -113t-27.5 -139t27.5 -139t75.5 -113.5t112.5 -76.5t138.5 -28q73 0 138 28t113 76.5t76 113.5t28 139t-28 139t-76 113t-113 76t-138 28zM378 91q-52 0 -97.5 20.5t-79.5 55.5t-53.5 82t-19.5 101t19.5 101t53.5 82
t79.5 55.5t97.5 20.5t97.5 -20.5t79.5 -55.5t53.5 -82t19.5 -101t-19.5 -101t-53.5 -82t-79.5 -55.5t-97.5 -20.5zM389 750h-65l56 135h96z" />
    <glyph glyph-name="Ocircumflex" unicode="&#xd4;" horiz-adv-x="759" 
d="M378 706q-74 0 -138.5 -28t-112.5 -76t-75.5 -113t-27.5 -139t27.5 -139t75.5 -113.5t112.5 -76.5t138.5 -28q73 0 138 28t113 76.5t76 113.5t28 139t-28 139t-76 113t-113 76t-138 28zM378 91q-52 0 -97.5 20.5t-79.5 55.5t-53.5 82t-19.5 101t19.5 101t53.5 82
t79.5 55.5t97.5 20.5t97.5 -20.5t79.5 -55.5t53.5 -82t19.5 -101t-19.5 -101t-53.5 -82t-79.5 -55.5t-97.5 -20.5zM419 750l-42 34l-42 -34h-94l136 128l137 -128h-95z" />
    <glyph glyph-name="Otilde" unicode="&#xd5;" horiz-adv-x="759" 
d="M378 706q73 0 138 -28t113 -76t76 -113t28 -139t-28 -139t-76 -113.5t-113 -76.5t-138 -28q-74 0 -138.5 28t-112.5 76.5t-75.5 113.5t-27.5 139t27.5 139t75.5 113t112.5 76t138.5 28zM378 91q52 0 97.5 20.5t79.5 55.5t53.5 82t19.5 101t-19.5 101t-53.5 82t-79.5 55.5
t-97.5 20.5t-97.5 -20.5t-79.5 -55.5t-53.5 -82t-19.5 -101t19.5 -101t53.5 -82t79.5 -55.5t97.5 -20.5zM426 820q20 7 26 28l60 -24q-8 -29 -27 -48t-43 -27q-7 -2 -13 -3t-13 -1q-38 0 -67 31q-14 15 -34 10q-20 -7 -26 -29l-59 25q8 28 26.5 47.5t43.5 26.5q24 8 48.5 1
t43.5 -27q14 -15 34 -10z" />
    <glyph glyph-name="Odieresis" unicode="&#xd6;" horiz-adv-x="758" 
d="M378 706q-74 0 -138.5 -28t-112.5 -76t-75.5 -113t-27.5 -139t27.5 -139t75.5 -113.5t112.5 -76.5t138.5 -28q73 0 138 28t113 76.5t76 113.5t28 139t-28 139t-76 113t-113 76t-138 28zM378 91q-52 0 -97.5 20.5t-79.5 55.5t-53.5 82t-19.5 101t19.5 101t53.5 82
t79.5 55.5t97.5 20.5t97.5 -20.5t79.5 -55.5t53.5 -82t19.5 -101t-19.5 -101t-53.5 -82t-79.5 -55.5t-97.5 -20.5zM459 834q18 0 30.5 -12.5t12.5 -30.5q0 -17 -12.5 -29.5t-30.5 -12.5q-17 0 -29.5 12.5t-12.5 29.5q0 18 12.5 30.5t29.5 12.5zM295 834q18 0 30.5 -12.5
t12.5 -30.5q0 -17 -12.5 -29.5t-30.5 -12.5q-17 0 -29.5 12.5t-12.5 29.5q0 18 12.5 30.5t29.5 12.5z" />
    <glyph glyph-name="Oslash" unicode="&#xd8;" horiz-adv-x="761" 
d="M663 563q33 -45 51.5 -99t18.5 -114q0 -74 -28 -139t-76 -113t-112.5 -76t-137.5 -28q-60 0 -114.5 18.5t-99.5 52.5l-70 -70l-71 72l70 70q-33 45 -51.5 99t-18.5 114q0 74 28 139t76 113t112.5 76t138.5 28q60 0 114 -19t99 -53l70 71l72 -72zM129 350q0 -77 39 -139
l352 352q-62 45 -141 45q-52 0 -97.5 -20t-79.5 -55t-53.5 -82t-19.5 -101zM629 350q0 38 -10.5 73.5t-29.5 65.5l-352 -352q30 -22 66 -34t76 -12q52 0 97.5 20.5t79.5 55.5t53.5 82t19.5 101z" />
    <glyph glyph-name="Ugrave" unicode="&#xd9;" 
d="M439 700h-104v-501q-2 -21 -10 -39.5t-21 -32.5t-30.5 -22t-37.5 -8q-32 0 -58 20q-19 14 -30 36t-11 43v504h-105v-510q2 -22 5 -34t8 -26q11 -29 30.5 -53.5t44.5 -41.5q26 -17 55 -26q30 -9 61 -9q30 0 60 9q22 7 38 16l13 -25h92v204q0 -3 0 26v76v105v114v103v72z
M146 885h96l56 -135h-65z" />
    <glyph glyph-name="Uacute" unicode="&#xda;" 
d="M439 700h-104v-501q-2 -21 -10 -39.5t-21 -32.5t-30.5 -22t-37.5 -8q-32 0 -58 20q-19 14 -30 36t-11 43v504h-105v-510q2 -22 5 -34t8 -26q11 -29 30.5 -53.5t44.5 -41.5q26 -17 55 -26q30 -9 61 -9q30 0 60 9q22 7 38 16l13 -25h92v204q0 -3 0 26v76v105v114v103v72z
M233 750h-65l56 135h96z" />
    <glyph glyph-name="Ucircumflex" unicode="&#xdb;" 
d="M439 700h-104v-501q-2 -21 -10 -39.5t-21 -32.5t-30.5 -22t-37.5 -8q-32 0 -58 20q-19 14 -30 36t-11 43v504h-105v-510q2 -22 5 -34t8 -26q11 -29 30.5 -53.5t44.5 -41.5q26 -17 55 -26q30 -9 61 -9q30 0 60 9q22 7 38 16l13 -25h92v204q0 -3 0 26v76v105v114v103v72z
M273 750l-42 34l-42 -34h-94l136 128l137 -128h-95z" />
    <glyph glyph-name="Udieresis" unicode="&#xdc;" 
d="M317 834q18 0 30.5 -12.5t12.5 -30.5q0 -17 -12.5 -29.5t-30.5 -12.5q-17 0 -29.5 12.5t-12.5 29.5q0 18 12.5 30.5t29.5 12.5zM153 834q18 0 30.5 -12.5t12.5 -30.5q0 -17 -12.5 -29.5t-30.5 -12.5q-17 0 -29.5 12.5t-12.5 29.5q0 18 12.5 30.5t29.5 12.5zM439 700h-104
v-501q-2 -21 -10 -39.5t-21 -32.5t-30.5 -22t-37.5 -8q-32 0 -58 20q-19 14 -30 36t-11 43v504h-105v-510q2 -22 5 -34t8 -26q11 -29 30.5 -53.5t44.5 -41.5q26 -17 55 -26q30 -9 61 -9q30 0 60 9q22 7 38 16l13 -25h92v204q0 -3 0 26v76v105v114v103v72z" />
    <glyph glyph-name="Yacute" unicode="&#xdd;" horiz-adv-x="445" 
d="M313 700l-81 -159h-22l-82 159h-114l154 -300v-400h105v400l154 300h-114zM241 750h-65l56 135h96z" />
    <glyph glyph-name="germandbls" unicode="&#xdf;" horiz-adv-x="476" 
d="M455 230q1 -46 -16 -92q-19 -47 -53 -80q-35 -34 -84 -48q-23 -8 -46.5 -9t-46.5 2l10 95q60 -5 98 32q19 19 28 44q10 24 9.5 53t-10.5 55q-11 27 -30 46q-20 18 -45 29.5t-55 12.5v94q24 0 40.5 9t25.5 23.5t11 31.5t-4 33q-4 10 -11 18q-15 19 -36 24.5t-45 0.5
q-22 -6 -40 -22q-24 -24 -24 -62v-519h-101v489q0 38 3 58t5 26q14 47 53 80q38 33 82 42q19 4 34 4.5t36 -1.5l12 -2t12 -3q47 -14 81 -48q52 -56 43 -140q-2 -13 -6.5 -24.5t-11.5 -22.5q-5 -9 -11 -17t-13 -16q9 -6 18 -13t17 -15q34 -34 52 -78q9 -22 13 -43.5t6 -46.5z
" />
    <glyph glyph-name="agrave" unicode="&#xe0;" horiz-adv-x="435" 
d="M405 281q-1 29 -8 55.5t-21 49.5q-15 24 -41 43q-11 9 -24 15t-26 11q-27 7 -53 9h-14q-38 -2 -73.5 -10.5t-62.5 -28.5l57 -75q17 11 38.5 14.5t41.5 3.5q23 -1 35 -6q26 -9 38 -29q7 -11 10 -29l-9 -9q-25 7 -50 9q-32 3 -62 0q-17 -2 -33 -5.5t-33 -11.5
q-36 -16 -61 -48q-14 -17 -21.5 -40.5t-7.5 -53.5q0 -5 0.5 -10.5t1.5 -10.5q4 -19 14 -39q10 -18 23.5 -31.5t28.5 -24.5q26 -18 55.5 -26.5t58.5 -8.5h5h3h9q34 2 67 12q3 2 6.5 2.5t6.5 2.5v-11h101v150v24q1 53 0 107zM304 152q0 -11 -5.5 -21.5t-11.5 -16.5
q-12 -12 -29 -18q-9 -4 -18.5 -5.5t-19.5 -2.5q-14 0 -22.5 1.5t-15.5 3.5q-18 4 -33 16q-12 10 -19 23q-4 8 -4 16v7q1 13 9 24q9 12 22 19q16 8 36 11q5 1 10.5 1.5t10.5 0.5q6 0 12 0.5t12 -0.5q20 0 42 -5q2 -1 5 -1.5t5 -1.5l14 -14v-15v-22zM118 652h96l56 -135h-65z
" />
    <glyph glyph-name="aacute" unicode="&#xe1;" horiz-adv-x="436" 
d="M405 281q-1 29 -8 55.5t-21 49.5q-15 24 -41 43q-11 9 -24 15t-26 11q-27 7 -53 9h-14q-38 -2 -73.5 -10.5t-62.5 -28.5l57 -75q17 11 38.5 14.5t41.5 3.5q23 -1 35 -6q26 -9 38 -29q7 -11 10 -29l-9 -9q-25 7 -50 9q-32 3 -62 0q-17 -2 -33 -5.5t-33 -11.5
q-36 -16 -61 -48q-14 -17 -21.5 -40.5t-7.5 -53.5q0 -5 0.5 -10.5t1.5 -10.5q4 -19 14 -39q10 -18 23.5 -31.5t28.5 -24.5q26 -18 55.5 -26.5t58.5 -8.5h5h3h9q34 2 67 12q3 2 6.5 2.5t6.5 2.5v-11h101v150v24q1 53 0 107zM304 152q0 -11 -5.5 -21.5t-11.5 -16.5
q-12 -12 -29 -18q-9 -4 -18.5 -5.5t-19.5 -2.5q-14 0 -22.5 1.5t-15.5 3.5q-18 4 -33 16q-12 10 -19 23q-4 8 -4 16v7q1 13 9 24q9 12 22 19q16 8 36 11q5 1 10.5 1.5t10.5 0.5q6 0 12 0.5t12 -0.5q20 0 42 -5q2 -1 5 -1.5t5 -1.5l14 -14v-15v-22zM228 517h-65l56 135h96z
" />
    <glyph glyph-name="acircumflex" unicode="&#xe2;" horiz-adv-x="436" 
d="M405 281q-1 29 -8 55.5t-21 49.5q-15 24 -41 43q-11 9 -24 15t-26 11q-27 7 -53 9h-14q-38 -2 -73.5 -10.5t-62.5 -28.5l57 -75q17 11 38.5 14.5t41.5 3.5q23 -1 35 -6q26 -9 38 -29q7 -11 10 -29l-9 -9q-25 7 -50 9q-32 3 -62 0q-17 -2 -33 -5.5t-33 -11.5
q-36 -16 -61 -48q-14 -17 -21.5 -40.5t-7.5 -53.5q0 -5 0.5 -10.5t1.5 -10.5q4 -19 14 -39q10 -18 23.5 -31.5t28.5 -24.5q26 -18 55.5 -26.5t58.5 -8.5h5h3h9q34 2 67 12q3 2 6.5 2.5t6.5 2.5v-11h101v150v24q1 53 0 107zM304 152q0 -11 -5.5 -21.5t-11.5 -16.5
q-12 -12 -29 -18q-9 -4 -18.5 -5.5t-19.5 -2.5q-14 0 -22.5 1.5t-15.5 3.5q-18 4 -33 16q-12 10 -19 23q-4 8 -4 16v7q1 13 9 24q9 12 22 19q16 8 36 11q5 1 10.5 1.5t10.5 0.5q6 0 12 0.5t12 -0.5q20 0 42 -5q2 -1 5 -1.5t5 -1.5l14 -14v-15v-22zM265 517l-42 34l-42 -34
h-94l136 128l137 -128h-95z" />
    <glyph glyph-name="atilde" unicode="&#xe3;" horiz-adv-x="436" 
d="M405 281q1 -54 0 -107v-24v-150h-101v11q-3 -2 -6.5 -2.5t-6.5 -2.5q-33 -10 -67 -12h-9h-3h-5q-29 0 -58.5 8.5t-55.5 26.5q-15 11 -28.5 24.5t-23.5 31.5q-10 20 -14 39q-1 5 -1.5 10.5t-0.5 10.5q0 30 7.5 53.5t21.5 40.5q25 32 61 48q17 8 33 11.5t33 5.5q30 3 62 0
q25 -2 50 -9l9 9q-3 18 -10 29q-12 20 -38 29q-12 5 -35 6q-20 0 -41.5 -3.5t-38.5 -14.5l-57 75q27 20 62.5 28.5t73.5 10.5h14q26 -2 53 -9q13 -5 26 -11t24 -15q26 -19 41 -43q14 -23 21 -49.5t8 -55.5zM304 174v15l-14 14q-2 1 -5 1.5t-5 1.5q-22 5 -42 5q-6 1 -12 0.5
t-12 -0.5q-5 0 -10.5 -0.5t-10.5 -1.5q-20 -3 -36 -11q-13 -7 -22 -19q-8 -11 -9 -24v-7q0 -8 4 -16q7 -13 19 -23q15 -12 33 -16q7 -2 15.5 -3.5t22.5 -1.5q10 1 19.5 2.5t18.5 5.5q17 6 29 18q6 6 11.5 16.5t5.5 21.5v22zM271 587q20 7 26 28l60 -24q-8 -29 -27 -48
t-43 -27q-7 -2 -13 -3t-13 -1q-38 0 -67 31q-14 15 -34 10q-20 -7 -26 -29l-59 25q8 28 26.5 47.5t43.5 26.5q24 8 48.5 1t43.5 -27q14 -15 34 -10z" />
    <glyph glyph-name="adieresis" unicode="&#xe4;" horiz-adv-x="434" 
d="M405 281q-1 29 -8 55.5t-21 49.5q-15 24 -41 43q-11 9 -24 15t-26 11q-27 7 -53 9h-14q-38 -2 -73.5 -10.5t-62.5 -28.5l57 -75q17 11 38.5 14.5t41.5 3.5q23 -1 35 -6q26 -9 38 -29q7 -11 10 -29l-9 -9q-25 7 -50 9q-32 3 -62 0q-17 -2 -33 -5.5t-33 -11.5
q-36 -16 -61 -48q-14 -17 -21.5 -40.5t-7.5 -53.5q0 -5 0.5 -10.5t1.5 -10.5q4 -19 14 -39q10 -18 23.5 -31.5t28.5 -24.5q26 -18 55.5 -26.5t58.5 -8.5h5h3h9q34 2 67 12q3 2 6.5 2.5t6.5 2.5v-11h101v150v24q1 53 0 107zM304 152q0 -11 -5.5 -21.5t-11.5 -16.5
q-12 -12 -29 -18q-9 -4 -18.5 -5.5t-19.5 -2.5q-14 0 -22.5 1.5t-15.5 3.5q-18 4 -33 16q-12 10 -19 23q-4 8 -4 16v7q1 13 9 24q9 12 22 19q16 8 36 11q5 1 10.5 1.5t10.5 0.5q6 0 12 0.5t12 -0.5q20 0 42 -5q2 -1 5 -1.5t5 -1.5l14 -14v-15v-22zM304 612q18 0 30.5 -12.5
t12.5 -30.5q0 -17 -12.5 -29.5t-30.5 -12.5q-17 0 -29.5 12.5t-12.5 29.5q0 18 12.5 30.5t29.5 12.5zM140 612q18 0 30.5 -12.5t12.5 -30.5q0 -17 -12.5 -29.5t-30.5 -12.5q-17 0 -29.5 12.5t-12.5 29.5q0 18 12.5 30.5t29.5 12.5z" />
    <glyph glyph-name="egrave" unicode="&#xe8;" horiz-adv-x="499" 
d="M151 652h96l56 -135h-65zM470 258q-1 16 -2 24.5t-2 14.5q-2 10 -4.5 19.5t-6.5 19.5q-15 40 -46 69q-30 29 -68 43q-23 9 -48 12t-47 2t-38 -3.5t-21 -4.5q-20 -6 -37 -15.5t-34 -20.5q-36 -25 -57 -59t-29 -72t-4 -77t19 -75q15 -37 42.5 -66t62.5 -48q18 -9 36 -15
q39 -12 77 -12q32 0 60.5 7.5t52.5 21.5q36 20 62 48l-76 67q-8 -9 -16 -17t-18 -14q-20 -12 -43 -17q-5 -1 -11 -1.5t-11 -0.5q-6 0 -12 0.5t-12 1.5q-20 3 -42 16q-20 11 -35.5 29t-23.5 39q-3 7 -4.5 13.5t-3.5 13.5l10 9h330v48zM216 364q18 6 37 5t36 -5.5t30.5 -12
t21.5 -15.5q14 -15 20 -31h-204l-4 12q13 17 28 28.5t35 18.5z" />
    <glyph glyph-name="eacute" unicode="&#xe9;" horiz-adv-x="497" 
d="M267 517h-65l56 135h96zM470 258q-1 16 -2 24.5t-2 14.5q-2 10 -4.5 19.5t-6.5 19.5q-15 40 -46 69q-30 29 -68 43q-23 9 -48 12t-47 2t-38 -3.5t-21 -4.5q-20 -6 -37 -15.5t-34 -20.5q-36 -25 -57 -59t-29 -72t-4 -77t19 -75q15 -37 42.5 -66t62.5 -48q18 -9 36 -15
q39 -12 77 -12q32 0 60.5 7.5t52.5 21.5q36 20 62 48l-76 67q-8 -9 -16 -17t-18 -14q-20 -12 -43 -17q-5 -1 -11 -1.5t-11 -0.5q-6 0 -12 0.5t-12 1.5q-20 3 -42 16q-20 11 -35.5 29t-23.5 39q-3 7 -4.5 13.5t-3.5 13.5l10 9h330v48zM216 364q18 6 37 5t36 -5.5t30.5 -12
t21.5 -15.5q14 -15 20 -31h-204l-4 12q13 17 28 28.5t35 18.5z" />
    <glyph glyph-name="ecircumflex" unicode="&#xea;" horiz-adv-x="497" 
d="M292 517l-42 34l-42 -34h-94l136 128l137 -128h-95zM470 258q-1 16 -2 24.5t-2 14.5q-2 10 -4.5 19.5t-6.5 19.5q-15 40 -46 69q-30 29 -68 43q-23 9 -48 12t-47 2t-38 -3.5t-21 -4.5q-20 -6 -37 -15.5t-34 -20.5q-36 -25 -57 -59t-29 -72t-4 -77t19 -75q15 -37 42.5 -66
t62.5 -48q18 -9 36 -15q39 -12 77 -12q32 0 60.5 7.5t52.5 21.5q36 20 62 48l-76 67q-8 -9 -16 -17t-18 -14q-20 -12 -43 -17q-5 -1 -11 -1.5t-11 -0.5q-6 0 -12 0.5t-12 1.5q-20 3 -42 16q-20 11 -35.5 29t-23.5 39q-3 7 -4.5 13.5t-3.5 13.5l10 9h330v48zM216 364
q18 6 37 5t36 -5.5t30.5 -12t21.5 -15.5q14 -15 20 -31h-204l-4 12q13 17 28 28.5t35 18.5z" />
    <glyph glyph-name="edieresis" unicode="&#xeb;" horiz-adv-x="497" 
d="M331 612q18 0 30.5 -12.5t12.5 -30.5q0 -17 -12.5 -29.5t-30.5 -12.5q-17 0 -29.5 12.5t-12.5 29.5q0 18 12.5 30.5t29.5 12.5zM167 612q18 0 30.5 -12.5t12.5 -30.5q0 -17 -12.5 -29.5t-30.5 -12.5q-17 0 -29.5 12.5t-12.5 29.5q0 18 12.5 30.5t29.5 12.5zM470 258
q-1 16 -2 24.5t-2 14.5q-2 10 -4.5 19.5t-6.5 19.5q-15 40 -46 69q-30 29 -68 43q-23 9 -48 12t-47 2t-38 -3.5t-21 -4.5q-20 -6 -37 -15.5t-34 -20.5q-36 -25 -57 -59t-29 -72t-4 -77t19 -75q15 -37 42.5 -66t62.5 -48q18 -9 36 -15q39 -12 77 -12q32 0 60.5 7.5t52.5 21.5
q36 20 62 48l-76 67q-8 -9 -16 -17t-18 -14q-20 -12 -43 -17q-5 -1 -11 -1.5t-11 -0.5q-6 0 -12 0.5t-12 1.5q-20 3 -42 16q-20 11 -35.5 29t-23.5 39q-3 7 -4.5 13.5t-3.5 13.5l10 9h330v48zM216 364q18 6 37 5t36 -5.5t30.5 -12t21.5 -15.5q14 -15 20 -31h-204l-4 12
q13 17 28 28.5t35 18.5z" />
    <glyph glyph-name="igrave" unicode="&#xec;" horiz-adv-x="174" 
d="M1 652h96l56 -135h-65zM136 0h-101v458h101v-458z" />
    <glyph glyph-name="iacute" unicode="&#xed;" horiz-adv-x="175" 
d="M136 0h-101v458h101v-458zM77 517h-65l56 135h96z" />
    <glyph glyph-name="icircumflex" unicode="&#xee;" horiz-adv-x="171" 
d="M136 0h-101v458h101v-458zM126 517l-42 34l-42 -34h-94l136 128l137 -128h-95z" />
    <glyph glyph-name="idieresis" unicode="&#xef;" horiz-adv-x="209" 
d="M155 0h-101v458h101v-458zM185 612q18 0 30.5 -12.5t12.5 -30.5q0 -17 -12.5 -29.5t-30.5 -12.5q-17 0 -29.5 12.5t-12.5 29.5q0 18 12.5 30.5t29.5 12.5zM21 612q18 0 30.5 -12.5t12.5 -30.5q0 -17 -12.5 -29.5t-30.5 -12.5q-17 0 -29.5 12.5t-12.5 29.5q0 18 12.5 30.5
t29.5 12.5z" />
    <glyph glyph-name="ntilde" unicode="&#xf1;" horiz-adv-x="445" 
d="M259 587q20 7 26 28l60 -24q-8 -29 -27 -48t-43 -27q-7 -2 -13 -3t-13 -1q-38 0 -67 31q-14 15 -34 10q-20 -7 -26 -29l-59 25q8 28 26.5 47.5t43.5 26.5q24 8 48.5 1t43.5 -27q14 -15 34 -10zM413 0h-101v45.5v56v76.5v107v6.5t-1 7.5q-4 14 -9 25q-14 26 -39 38
q-12 5 -26.5 7.5t-28.5 -0.5q-30 -6 -51 -29q-11 -11 -18.5 -29t-7.5 -35v-276h-101v458h101l20 -14q8 4 16.5 7.5t17.5 5.5q27 9 58 7q32 -2 59 -13q26 -10 50 -31q23 -21 38 -47q11 -19 17 -41t6 -46v-286z" />
    <glyph glyph-name="ograve" unicode="&#xf2;" horiz-adv-x="518" 
d="M151 652h96l56 -135h-65zM259 464q-49 0 -91.5 -18.5t-74.5 -50.5t-50.5 -74.5t-18.5 -91.5t18.5 -91.5t50.5 -74.5t74.5 -50.5t91.5 -18.5t91.5 18.5t74.5 50.5t50.5 74.5t18.5 91.5t-18.5 91.5t-50.5 74.5t-74.5 50.5t-91.5 18.5zM259 88q-28 0 -52.5 11t-42.5 30
t-28.5 45t-10.5 55t10.5 54.5t28.5 44.5t42.5 30t52.5 11t52.5 -11t42.5 -30t28.5 -44.5t10.5 -54.5t-10.5 -55t-28.5 -45t-42.5 -30t-52.5 -11z" />
    <glyph glyph-name="oacute" unicode="&#xf3;" horiz-adv-x="517" 
d="M259 464q-49 0 -91.5 -18.5t-74.5 -50.5t-50.5 -74.5t-18.5 -91.5t18.5 -91.5t50.5 -74.5t74.5 -50.5t91.5 -18.5t91.5 18.5t74.5 50.5t50.5 74.5t18.5 91.5t-18.5 91.5t-50.5 74.5t-74.5 50.5t-91.5 18.5zM259 88q-28 0 -52.5 11t-42.5 30t-28.5 45t-10.5 55t10.5 54.5
t28.5 44.5t42.5 30t52.5 11t52.5 -11t42.5 -30t28.5 -44.5t10.5 -54.5t-10.5 -55t-28.5 -45t-42.5 -30t-52.5 -11zM269 517h-65l56 135h96z" />
    <glyph glyph-name="ocircumflex" unicode="&#xf4;" horiz-adv-x="519" 
d="M259 464q-49 0 -91.5 -18.5t-74.5 -50.5t-50.5 -74.5t-18.5 -91.5t18.5 -91.5t50.5 -74.5t74.5 -50.5t91.5 -18.5t91.5 18.5t74.5 50.5t50.5 74.5t18.5 91.5t-18.5 91.5t-50.5 74.5t-74.5 50.5t-91.5 18.5zM259 88q-28 0 -52.5 11t-42.5 30t-28.5 45t-10.5 55t10.5 54.5
t28.5 44.5t42.5 30t52.5 11t52.5 -11t42.5 -30t28.5 -44.5t10.5 -54.5t-10.5 -55t-28.5 -45t-42.5 -30t-52.5 -11zM299 517l-42 34l-42 -34h-94l136 128l137 -128h-95z" />
    <glyph glyph-name="otilde" unicode="&#xf5;" horiz-adv-x="519" 
d="M259 464q49 0 91.5 -18.5t74.5 -50.5t50.5 -74.5t18.5 -91.5t-18.5 -91.5t-50.5 -74.5t-74.5 -50.5t-91.5 -18.5t-91.5 18.5t-74.5 50.5t-50.5 74.5t-18.5 91.5t18.5 91.5t50.5 74.5t74.5 50.5t91.5 18.5zM259 88q28 0 52.5 11t42.5 30t28.5 45t10.5 55t-10.5 54.5
t-28.5 44.5t-42.5 30t-52.5 11t-52.5 -11t-42.5 -30t-28.5 -44.5t-10.5 -54.5t10.5 -55t28.5 -45t42.5 -30t52.5 -11zM310 587q20 7 26 28l60 -24q-8 -29 -27 -48t-43 -27q-7 -2 -13 -3t-13 -1q-38 0 -67 31q-14 15 -34 10q-20 -7 -26 -29l-59 25q8 28 26.5 47.5t43.5 26.5
q24 8 48.5 1t43.5 -27q14 -15 34 -10z" />
    <glyph glyph-name="odieresis" unicode="&#xf6;" horiz-adv-x="520" 
d="M259 464q-49 0 -91.5 -18.5t-74.5 -50.5t-50.5 -74.5t-18.5 -91.5t18.5 -91.5t50.5 -74.5t74.5 -50.5t91.5 -18.5t91.5 18.5t74.5 50.5t50.5 74.5t18.5 91.5t-18.5 91.5t-50.5 74.5t-74.5 50.5t-91.5 18.5zM259 88q-28 0 -52.5 11t-42.5 30t-28.5 45t-10.5 55t10.5 54.5
t28.5 44.5t42.5 30t52.5 11t52.5 -11t42.5 -30t28.5 -44.5t10.5 -54.5t-10.5 -55t-28.5 -45t-42.5 -30t-52.5 -11zM342 612q18 0 30.5 -12.5t12.5 -30.5q0 -17 -12.5 -29.5t-30.5 -12.5q-17 0 -29.5 12.5t-12.5 29.5q0 18 12.5 30.5t29.5 12.5zM178 612q18 0 30.5 -12.5
t12.5 -30.5q0 -17 -12.5 -29.5t-30.5 -12.5q-17 0 -29.5 12.5t-12.5 29.5q0 18 12.5 30.5t29.5 12.5z" />
    <glyph glyph-name="divide" unicode="&#xf7;" horiz-adv-x="365" 
d="M24 348h319v-97h-319v97zM184 377q-20 0 -33 13.5t-13 32.5t13 32t33 13q19 0 32 -13t13 -32t-13 -32.5t-32 -13.5zM184 217q19 0 32 -13t13 -32t-13 -32.5t-32 -13.5q-20 0 -33 13.5t-13 32.5t13 32t33 13z" />
    <glyph glyph-name="oslash" unicode="&#xf8;" horiz-adv-x="519" 
d="M456 357q18 -28 28 -60.5t10 -67.5q0 -49 -18.5 -91.5t-50.5 -74.5t-74.5 -50.5t-91.5 -18.5q-35 0 -67.5 10t-60.5 28l-38 -38l-69 69l38 38q-18 28 -28 60.5t-10 67.5q0 49 18.5 91.5t50.5 74.5t74.5 50.5t91.5 18.5q35 0 67.5 -10t60.5 -28l38 38l69 -69zM125 229
q0 -29 11 -54l181 181q-26 13 -58 13q-28 0 -52.5 -11t-42.5 -30t-28.5 -44.5t-10.5 -54.5zM393 229q0 14 -2.5 28t-7.5 26l-181 -181q28 -13 57 -13q28 0 52.5 11t42.5 30t28.5 44.5t10.5 54.5z" />
    <glyph glyph-name="ugrave" unicode="&#xf9;" horiz-adv-x="444" 
d="M312 458v-279q0 -41 -21 -63t-55 -27q-20 -3 -39 2t-33.5 16.5t-23 28t-8.5 37.5v285h-102v-263q0 -35 5.5 -61t18.5 -49q14 -26 37 -46q23 -22 51 -32q26 -11 58 -13t59 7q17 5 34 14l19 -15h102v458h-102zM122 652h96l56 -135h-65z" />
    <glyph glyph-name="uacute" unicode="&#xfa;" horiz-adv-x="444" 
d="M312 458v-279q0 -41 -21 -63t-55 -27q-20 -3 -39 2t-33.5 16.5t-23 28t-8.5 37.5v285h-102v-263q0 -35 5.5 -61t18.5 -49q14 -26 37 -46q23 -22 51 -32q26 -11 58 -13t59 7q17 5 34 14l19 -15h102v458h-102zM231 517h-65l56 135h96z" />
    <glyph glyph-name="ucircumflex" unicode="&#xfb;" horiz-adv-x="444" 
d="M312 458v-279q0 -41 -21 -63t-55 -27q-20 -3 -39 2t-33.5 16.5t-23 28t-8.5 37.5v285h-102v-263q0 -35 5.5 -61t18.5 -49q14 -26 37 -46q23 -22 51 -32q26 -11 58 -13t59 7q17 5 34 14l19 -15h102v458h-102zM259 517l-42 34l-42 -34h-94l136 128l137 -128h-95z" />
    <glyph glyph-name="udieresis" unicode="&#xfc;" horiz-adv-x="444" 
d="M312 458v-279q0 -41 -21 -63t-55 -27q-20 -3 -39 2t-33.5 16.5t-23 28t-8.5 37.5v285h-102v-263q0 -35 5.5 -61t18.5 -49q14 -26 37 -46q23 -22 51 -32q26 -11 58 -13t59 7q17 5 34 14l19 -15h102v458h-102zM303 612q18 0 30.5 -12.5t12.5 -30.5q0 -17 -12.5 -29.5
t-30.5 -12.5q-17 0 -29.5 12.5t-12.5 29.5q0 18 12.5 30.5t29.5 12.5zM139 612q18 0 30.5 -12.5t12.5 -30.5q0 -17 -12.5 -29.5t-30.5 -12.5q-17 0 -29.5 12.5t-12.5 29.5q0 18 12.5 30.5t29.5 12.5z" />
    <glyph glyph-name="yacute" unicode="&#xfd;" horiz-adv-x="478" 
d="M349 458l-106 -295h-13l-106 295h-104l164 -459l-89 -247h105l253 706h-104zM262 517h-65l56 135h96z" />
    <glyph glyph-name="thorn" unicode="&#xfe;" horiz-adv-x="518" 
d="M257 465q49 0 92 -18.5t75 -50.5t50.5 -75t18.5 -92t-18.5 -92t-50.5 -75t-75 -50.5t-92 -18.5q-57 0 -107 25l-19 -18v-242h-101v242v458v242h101v-242v-30q28 17 59.5 27t66.5 10zM257 88q28 0 52.5 11t42.5 30t28.5 45t10.5 55t-10.5 54.5t-28.5 45t-42.5 30.5
t-52.5 11t-52.5 -11t-43 -30.5t-29 -45t-10.5 -54.5t10.5 -55t29 -45t43 -30t52.5 -11z" />
    <glyph glyph-name="ydieresis" unicode="&#xff;" horiz-adv-x="474" 
d="M349 458l-106 -295h-13l-106 295h-104l164 -459l-89 -247h105l253 706h-104zM318 612q18 0 30.5 -12.5t12.5 -30.5q0 -17 -12.5 -29.5t-30.5 -12.5q-17 0 -29.5 12.5t-12.5 29.5q0 18 12.5 30.5t29.5 12.5zM154 612q18 0 30.5 -12.5t12.5 -30.5q0 -17 -12.5 -29.5
t-30.5 -12.5q-17 0 -29.5 12.5t-12.5 29.5q0 18 12.5 30.5t29.5 12.5z" />
    <glyph glyph-name="Lslash" unicode="&#x141;" horiz-adv-x="485" 
d="M230 98h227v-98h-240h-105v259l-53 -27l-43 84l96 49v335h105v-282l98 50l43 -84l-141 -72v-200l13 -14v0z" />
    <glyph glyph-name="lslash" unicode="&#x142;" horiz-adv-x="375" 
d="M239 112l14 -14h23v-98h-37h-105h-36v98h23l13 14v158l-75 -38l-43 84l118 60v226h-36v98h178v-98h-37v-172l76 38l43 -84l-119 -60v-212v0z" />
    <glyph glyph-name="Ydieresis" unicode="&#x178;" horiz-adv-x="443" 
d="M313 700l-81 -159h-22l-82 159h-114l154 -300v-400h105v400l154 300h-114zM298 834q18 0 30.5 -12.5t12.5 -30.5q0 -17 -12.5 -29.5t-30.5 -12.5q-17 0 -29.5 12.5t-12.5 29.5q0 18 12.5 30.5t29.5 12.5zM134 834q18 0 30.5 -12.5t12.5 -30.5q0 -17 -12.5 -29.5
t-30.5 -12.5q-17 0 -29.5 12.5t-12.5 29.5q0 18 12.5 30.5t29.5 12.5z" />
    <glyph glyph-name="Zcaron" unicode="&#x17d;" horiz-adv-x="383" 
d="M145 98l-9 10l201 494v98h-296v-98h176l10 -10l-201 -494v-98h327v98h-208zM320 878l-137 -128l-136 128h94l42 -34l42 34h95z" />
    <glyph glyph-name="zcaron" unicode="&#x17e;" horiz-adv-x="374" 
d="M343 364v94h-303v-94h166l9 -9l-191 -261v-94h319v94h-182l-9 9zM322 641l-137 -128l-136 128h94l42 -34l42 34h95z" />
    <glyph glyph-name="ring" unicode="&#x2da;" horiz-adv-x="342" 
d="M171 380q-33 0 -62.5 13t-51.5 35t-34.5 51.5t-12.5 63.5t12.5 63.5t34.5 51.5t51.5 35t62.5 13t62.5 -13t51.5 -35t34.5 -51.5t12.5 -63.5t-12.5 -63.5t-34.5 -51.5t-51.5 -35t-62.5 -13zM171 612q-26 0 -44.5 -21t-18.5 -48t18.5 -48t44.5 -21t44.5 21t18.5 48
t-18.5 48t-44.5 21z" />
    <glyph glyph-name="emdash" unicode="&#x2014;" horiz-adv-x="660" 
d="M22 251v97h610v-97h-610v0z" />
    <glyph glyph-name="quoteleft" unicode="&#x2018;" horiz-adv-x="197" 
d="M97 458h-83l70 242h97l-84 -242v0z" />
    <glyph glyph-name="quoteright" unicode="&#x2019;" horiz-adv-x="200" 
d="M100 700h83l-70 -242h-97l84 242v0z" />
    <glyph glyph-name="quotedblleft" unicode="&#x201c;" horiz-adv-x="353" 
d="M97 458h-83l70 242h97l-84 -242v0zM251 458h-83l70 242h97l-84 -242v0z" />
    <glyph glyph-name="quotedblright" unicode="&#x201d;" horiz-adv-x="351" 
d="M255 700h83l-70 -242h-97l84 242v0zM101 700h83l-70 -242h-97l84 242v0z" />
    <glyph glyph-name="dagger" unicode="&#x2020;" horiz-adv-x="380" 
d="M359 400l-101 -100l101 -101l-68 -68l-101 100l-101 -100l-68 68l100 101l-100 100l68 69l101 -101l101 101l68 -69v0z" />
    <glyph glyph-name="daggerdbl" unicode="&#x2021;" horiz-adv-x="525" 
d="M396 521l-33 -89h133v-98h-169l-25 -69h194v-98h-229l-46 -126l-99 36l33 90h-133v98h169l25 69h-194v98h229l46 125l99 -36v0z" />
    <glyph glyph-name="ellipsis" unicode="&#x2026;" horiz-adv-x="541" 
d="M150 62q0 -29 -20 -48.5t-48 -19.5q-29 0 -48.5 19.5t-19.5 48.5t19.5 48.5t48.5 19.5q28 0 48 -19.5t20 -48.5zM338 62q0 -29 -20 -48.5t-48 -19.5q-29 0 -48.5 19.5t-19.5 48.5t19.5 48.5t48.5 19.5q28 0 48 -19.5t20 -48.5zM522 62q0 -29 -20 -48.5t-48 -19.5
q-29 0 -48.5 19.5t-19.5 48.5t19.5 48.5t48.5 19.5q28 0 48 -19.5t20 -48.5z" />
    <glyph glyph-name="perthousand" unicode="&#x2030;" horiz-adv-x="1038" 
d="M171 385q-33 0 -62.5 12.5t-51.5 34t-34.5 50.5t-12.5 63t12.5 63.5t34.5 51.5t51.5 35t62.5 13t62.5 -13t51.5 -35t34.5 -51.5t12.5 -63.5t-12.5 -63t-34.5 -50.5t-51.5 -34t-62.5 -12.5zM171 614q-26 0 -44.5 -21t-18.5 -48t18.5 -48t44.5 -21t44.5 21t18.5 48
t-18.5 48t-44.5 21zM514 -8q-33 0 -62.5 12.5t-51.5 34t-34.5 50.5t-12.5 63t12.5 63.5t34.5 51.5t51.5 34.5t62.5 12.5t62.5 -12.5t51.5 -34.5t34.5 -51.5t12.5 -63.5t-12.5 -63t-34.5 -50.5t-51.5 -34t-62.5 -12.5zM514 224q-26 0 -44.5 -22.5t-18.5 -49.5t18.5 -49.5
t44.5 -22.5t44.5 22.5t18.5 49.5t-18.5 49.5t-44.5 22.5zM177 -30l-87 52l418 706l88 -52zM862 -8q-33 0 -62.5 12.5t-51.5 34t-34.5 50.5t-12.5 63t12.5 63.5t34.5 51.5t51.5 34.5t62.5 12.5t62.5 -12.5t51.5 -34.5t34.5 -51.5t12.5 -63.5t-12.5 -63t-34.5 -50.5t-51.5 -34
t-62.5 -12.5zM862 224q-26 0 -44.5 -22.5t-18.5 -49.5t18.5 -49.5t44.5 -22.5t44.5 22.5t18.5 49.5t-18.5 49.5t-44.5 22.5z" />
    <glyph glyph-name="Euro" unicode="&#x20ac;" horiz-adv-x="573" 
d="M423 88q25 0 48 6.5t46 15.5l41 -90q-65 -27 -135 -27q-54 0 -103 15t-91 42t-75 65t-54 84h-84v98h55q-3 24 -3 50v18h-52v98h71q18 53 50.5 98t76.5 77.5t97 50.5t112 18q35 0 69 -9.5t66 -23.5l-41 -90q-23 10 -46 16t-48 6q-73 0 -132.5 -39.5t-90.5 -103.5h233v-98
h-260v-18q0 -13 1 -25.5t3 -24.5h256v-98h-215q35 -51 88.5 -81t116.5 -30z" />
    <glyph glyph-name="fi" unicode="&#xfb01;" horiz-adv-x="379" 
d="M349 458v-458h-101v364h-102v-364h-102v344l-20 20v94h20v56q1 29 2 41t3 21q8 35 31 64.5t55 46.5q16 8 34 13.5t50 5.5q5 0 11 -0.5t11 -1.5q20 -5 37 -13q19 -10 32 -22l6.5 -6.5t6.5 -7.5q2 -2 4 -4.5t7 -9.5l-79 -52q-20 21 -41 21t-33 -8q-17 -11 -24.5 -24
t-10.5 -39v-25v-56h203z" />
    <glyph glyph-name="fl" unicode="&#xfb02;" horiz-adv-x="401" 
d="M349 659q6 -5 11.5 -10.5l10.5 -10.5v-638h-101v602q-7 4 -14.5 5.5t-15.5 3.5q-16 2 -35 -0.5t-33 -14.5q-13 -11 -19 -25q-7 -14 -7 -31v-82h74v-94h-74q2 -91 1 -182t-1 -182h-102v343l-20 21v94h20h1v84q0 39 19 74q19 36 49 57q22 15 46.5 23.5t54.5 9.5h5
q26 0 52.5 -6t49.5 -20q8 -5 15 -10.5t13 -10.5z" />
    </font>
</defs>
</svg>
